<svg width="964px" height="1206px"
 viewBox="0.00 0.00 964.32 1206.00" xmlns="http://www.w3.org/2000/svg" xmlns:xlink="http://www.w3.org/1999/xlink">
<g id="graph0" class="graph" transform="scale(1.0 1.0) rotate(0) translate(36 1170)">
<polygon fill="white" stroke="transparent" points="-36,36 -36,-1170 928.32,-1170 928.32,36 -36,36"/>
<!-- shows -->
<g id="node1" class="node">
<title>shows</title>
<polygon fill="#caff70" stroke="transparent" points="724.32,-710 724.32,-732 892.32,-732 892.32,-710 724.32,-710"/>
<polygon fill="none" stroke="black" points="724.32,-710 724.32,-732 892.32,-732 892.32,-710 724.32,-710"/>
<text text-anchor="start" x="790.82" y="-717.4" font-family="Times,serif" font-weight="bold" font-size="14.00">shows</text>
<polygon fill="none" stroke="black" points="724.32,-688 724.32,-710 892.32,-710 892.32,-688 724.32,-688"/>
<text text-anchor="start" x="769.25" y="-695.4" font-family="Times,serif" font-weight="bold" font-size="14.00">id: </text>
<text text-anchor="start" x="787.53" y="-695.4" font-family="Times,serif" font-weight="bold" font-style="italic" font-size="14.00">INTEGER</text>
<polygon fill="none" stroke="black" points="724.32,-666 724.32,-688 892.32,-688 892.32,-666 724.32,-666"/>
<text text-anchor="start" x="775.86" y="-673.4" font-family="Times,serif" font-size="14.00">title: </text>
<text text-anchor="start" x="805.02" y="-673.4" font-family="Times,serif" font-style="italic" font-size="14.00">TEXT</text>
<polygon fill="none" stroke="black" points="724.32,-644 724.32,-666 892.32,-666 892.32,-644 724.32,-644"/>
<text text-anchor="start" x="750.58" y="-651.4" font-family="Times,serif" font-size="14.00">original_title: </text>
<text text-anchor="start" x="830.3" y="-651.4" font-family="Times,serif" font-style="italic" font-size="14.00">TEXT</text>
<polygon fill="none" stroke="black" points="724.32,-622 724.32,-644 892.32,-644 892.32,-622 724.32,-622"/>
<text text-anchor="start" x="752.92" y="-629.4" font-family="Times,serif" font-size="14.00">trakt_id: </text>
<text text-anchor="start" x="803.86" y="-629.4" font-family="Times,serif" font-style="italic" font-size="14.00">INTEGER</text>
<polygon fill="none" stroke="black" points="724.32,-600 724.32,-622 892.32,-622 892.32,-600 724.32,-600"/>
<text text-anchor="start" x="751.36" y="-607.4" font-family="Times,serif" font-size="14.00">tmdb_id: </text>
<text text-anchor="start" x="805.42" y="-607.4" font-family="Times,serif" font-style="italic" font-size="14.00">INTEGER</text>
<polygon fill="none" stroke="black" points="724.32,-578 724.32,-600 892.32,-600 892.32,-578 724.32,-578"/>
<text text-anchor="start" x="736.2" y="-585.4" font-family="Times,serif" font-size="14.00">tmdb_poster_path: </text>
<text text-anchor="start" x="844.68" y="-585.4" font-family="Times,serif" font-style="italic" font-size="14.00">TEXT</text>
<polygon fill="none" stroke="black" points="724.32,-556 724.32,-578 892.32,-578 892.32,-556 724.32,-556"/>
<text text-anchor="start" x="727.26" y="-563.4" font-family="Times,serif" font-size="14.00">tmdb_backdrop_path: </text>
<text text-anchor="start" x="853.62" y="-563.4" font-family="Times,serif" font-style="italic" font-size="14.00">TEXT</text>
<polygon fill="none" stroke="black" points="724.32,-534 724.32,-556 892.32,-556 892.32,-534 724.32,-534"/>
<text text-anchor="start" x="748.26" y="-541.4" font-family="Times,serif" font-size="14.00">trakt_updated: </text>
<text text-anchor="start" x="832.62" y="-541.4" font-family="Times,serif" font-style="italic" font-size="14.00">TEXT</text>
<polygon fill="none" stroke="black" points="724.32,-512 724.32,-534 892.32,-534 892.32,-512 724.32,-512"/>
<text text-anchor="start" x="746.69" y="-519.4" font-family="Times,serif" font-size="14.00">tmdb_updated: </text>
<text text-anchor="start" x="834.18" y="-519.4" font-family="Times,serif" font-style="italic" font-size="14.00">TEXT</text>
<polygon fill="none" stroke="black" points="724.32,-490 724.32,-512 892.32,-512 892.32,-490 724.32,-490"/>
<text text-anchor="start" x="760.7" y="-497.4" font-family="Times,serif" font-size="14.00">overview: </text>
<text text-anchor="start" x="820.18" y="-497.4" font-family="Times,serif" font-style="italic" font-size="14.00">TEXT</text>
<polygon fill="none" stroke="black" points="724.32,-468 724.32,-490 892.32,-490 892.32,-468 724.32,-468"/>
<text text-anchor="start" x="757.98" y="-475.4" font-family="Times,serif" font-size="14.00">homepage: </text>
<text text-anchor="start" x="822.9" y="-475.4" font-family="Times,serif" font-style="italic" font-size="14.00">TEXT</text>
<polygon fill="none" stroke="black" points="724.32,-446 724.32,-468 892.32,-468 892.32,-446 724.32,-446"/>
<text text-anchor="start" x="770.02" y="-453.4" font-family="Times,serif" font-size="14.00">rating: </text>
<text text-anchor="start" x="810.07" y="-453.4" font-family="Times,serif" font-style="italic" font-size="14.00">REAL</text>
<polygon fill="none" stroke="black" points="724.32,-424 724.32,-446 892.32,-446 892.32,-424 724.32,-424"/>
<text text-anchor="start" x="752.93" y="-431.4" font-family="Times,serif" font-size="14.00">certification: </text>
<text text-anchor="start" x="827.95" y="-431.4" font-family="Times,serif" font-style="italic" font-size="14.00">TEXT</text>
<polygon fill="none" stroke="black" points="724.32,-402 724.32,-424 892.32,-424 892.32,-402 724.32,-402"/>
<text text-anchor="start" x="765.36" y="-409.4" font-family="Times,serif" font-size="14.00">country: </text>
<text text-anchor="start" x="815.52" y="-409.4" font-family="Times,serif" font-style="italic" font-size="14.00">TEXT</text>
<polygon fill="none" stroke="black" points="724.32,-380 724.32,-402 892.32,-402 892.32,-380 724.32,-380"/>
<text text-anchor="start" x="763.81" y="-387.4" font-family="Times,serif" font-size="14.00">network: </text>
<text text-anchor="start" x="817.07" y="-387.4" font-family="Times,serif" font-style="italic" font-size="14.00">TEXT</text>
<polygon fill="none" stroke="black" points="724.32,-358 724.32,-380 892.32,-380 892.32,-358 724.32,-358"/>
<text text-anchor="start" x="752.92" y="-365.4" font-family="Times,serif" font-size="14.00">runtime: </text>
<text text-anchor="start" x="803.86" y="-365.4" font-family="Times,serif" font-style="italic" font-size="14.00">INTEGER</text>
<polygon fill="none" stroke="black" points="724.32,-336 724.32,-358 892.32,-358 892.32,-336 724.32,-336"/>
<text text-anchor="start" x="768.48" y="-343.4" font-family="Times,serif" font-size="14.00">genres: </text>
<text text-anchor="start" x="812.4" y="-343.4" font-family="Times,serif" font-style="italic" font-size="14.00">TEXT</text>
<polygon fill="#c1cdcd" stroke="transparent" points="724.32,-314 724.32,-336 892.32,-336 892.32,-314 724.32,-314"/>
<polygon fill="none" stroke="black" points="724.32,-314 724.32,-336 892.32,-336 892.32,-314 724.32,-314"/>
<text text-anchor="start" x="788.11" y="-321.4" font-family="Times,serif" font-style="italic" font-size="14.00">Indices</text>
<polygon fill="none" stroke="black" points="724.32,-292 724.32,-314 892.32,-314 892.32,-292 724.32,-292"/>
<text text-anchor="start" x="746.5" y="-298.4" font-family="Times,serif" font-size="14.00">index_shows_trakt_id</text>
<polygon fill="none" stroke="black" points="724.32,-270 724.32,-292 892.32,-292 892.32,-270 724.32,-270"/>
<text text-anchor="start" x="744.93" y="-276.4" font-family="Times,serif" font-size="14.00">index_shows_tmdb_id</text>
</g>
<!-- trending_shows -->
<g id="node2" class="node">
<title>trending_shows</title>
<polygon fill="#caff70" stroke="transparent" points="371.16,-1112 371.16,-1134 558.16,-1134 558.16,-1112 371.16,-1112"/>
<polygon fill="none" stroke="black" points="371.16,-1112 371.16,-1134 558.16,-1134 558.16,-1112 371.16,-1112"/>
<text text-anchor="start" x="420.33" y="-1119.4" font-family="Times,serif" font-weight="bold" font-size="14.00">trending_shows</text>
<polygon fill="none" stroke="black" points="371.16,-1090 371.16,-1112 558.16,-1112 558.16,-1090 371.16,-1090"/>
<text text-anchor="start" x="425.59" y="-1097.4" font-family="Times,serif" font-weight="bold" font-size="14.00">id: </text>
<text text-anchor="start" x="443.87" y="-1097.4" font-family="Times,serif" font-weight="bold" font-style="italic" font-size="14.00">INTEGER</text>
<polygon fill="none" stroke="black" points="371.16,-1068 371.16,-1090 558.16,-1090 558.16,-1068 371.16,-1068"/>
<text text-anchor="start" x="407.31" y="-1075.4" font-family="Times,serif" font-size="14.00">show_id: </text>
<text text-anchor="start" x="462.14" y="-1075.4" font-family="Times,serif" font-style="italic" font-size="14.00">INTEGER</text>
<polygon fill="none" stroke="black" points="371.16,-1046 371.16,-1068 558.16,-1068 558.16,-1046 371.16,-1046"/>
<text text-anchor="start" x="417.82" y="-1053.4" font-family="Times,serif" font-size="14.00">page: </text>
<text text-anchor="start" x="451.64" y="-1053.4" font-family="Times,serif" font-style="italic" font-size="14.00">INTEGER</text>
<polygon fill="none" stroke="black" points="371.16,-1024 371.16,-1046 558.16,-1046 558.16,-1024 371.16,-1024"/>
<text text-anchor="start" x="406.16" y="-1031.4" font-family="Times,serif" font-size="14.00">watchers: </text>
<text text-anchor="start" x="463.29" y="-1031.4" font-family="Times,serif" font-style="italic" font-size="14.00">INTEGER</text>
<polygon fill="#c1cdcd" stroke="transparent" points="371.16,-1002 371.16,-1024 558.16,-1024 558.16,-1002 371.16,-1002"/>
<polygon fill="none" stroke="black" points="371.16,-1002 371.16,-1024 558.16,-1024 558.16,-1002 371.16,-1002"/>
<text text-anchor="start" x="444.45" y="-1009.4" font-family="Times,serif" font-style="italic" font-size="14.00">Indices</text>
<polygon fill="none" stroke="black" points="371.16,-980 371.16,-1002 558.16,-1002 558.16,-980 371.16,-980"/>
<text text-anchor="start" x="374.06" y="-986.4" font-family="Times,serif" font-size="14.00">index_trending_shows_show_id</text>
</g>
<!-- trending_shows&#45;&gt;shows -->
<g id="edge1" class="edge">
<title>trending_shows:show_id&#45;&gt;shows:id</title>
<path fill="none" stroke="black" stroke-dasharray="5,2" d="M559.16,-1079C602.23,-1079 668.97,-746.41 715.1,-703.53"/>
<polygon fill="black" stroke="black" points="716.89,-706.55 724.32,-699 713.8,-700.27 716.89,-706.55"/>
<text text-anchor="middle" x="642.99" y="-915.2" font-family="Times,serif" font-size="14.00">1&#45;1</text>
</g>
<!-- popular_shows -->
<g id="node3" class="node">
<title>popular_shows</title>
<polygon fill="#caff70" stroke="transparent" points="373.16,-922 373.16,-944 556.16,-944 556.16,-922 373.16,-922"/>
<polygon fill="none" stroke="black" points="373.16,-922 373.16,-944 556.16,-944 556.16,-922 373.16,-922"/>
<text text-anchor="start" x="422.28" y="-929.4" font-family="Times,serif" font-weight="bold" font-size="14.00">popular_shows</text>
<polygon fill="none" stroke="black" points="373.16,-900 373.16,-922 556.16,-922 556.16,-900 373.16,-900"/>
<text text-anchor="start" x="425.59" y="-907.4" font-family="Times,serif" font-weight="bold" font-size="14.00">id: </text>
<text text-anchor="start" x="443.87" y="-907.4" font-family="Times,serif" font-weight="bold" font-style="italic" font-size="14.00">INTEGER</text>
<polygon fill="none" stroke="black" points="373.16,-878 373.16,-900 556.16,-900 556.16,-878 373.16,-878"/>
<text text-anchor="start" x="407.31" y="-885.4" font-family="Times,serif" font-size="14.00">show_id: </text>
<text text-anchor="start" x="462.14" y="-885.4" font-family="Times,serif" font-style="italic" font-size="14.00">INTEGER</text>
<polygon fill="none" stroke="black" points="373.16,-856 373.16,-878 556.16,-878 556.16,-856 373.16,-856"/>
<text text-anchor="start" x="417.82" y="-863.4" font-family="Times,serif" font-size="14.00">page: </text>
<text text-anchor="start" x="451.64" y="-863.4" font-family="Times,serif" font-style="italic" font-size="14.00">INTEGER</text>
<polygon fill="none" stroke="black" points="373.16,-834 373.16,-856 556.16,-856 556.16,-834 373.16,-834"/>
<text text-anchor="start" x="399.55" y="-841.4" font-family="Times,serif" font-size="14.00">page_order: </text>
<text text-anchor="start" x="469.9" y="-841.4" font-family="Times,serif" font-style="italic" font-size="14.00">INTEGER</text>
<polygon fill="#c1cdcd" stroke="transparent" points="373.16,-812 373.16,-834 556.16,-834 556.16,-812 373.16,-812"/>
<polygon fill="none" stroke="black" points="373.16,-812 373.16,-834 556.16,-834 556.16,-812 373.16,-812"/>
<text text-anchor="start" x="444.45" y="-819.4" font-family="Times,serif" font-style="italic" font-size="14.00">Indices</text>
<polygon fill="none" stroke="black" points="373.16,-790 373.16,-812 556.16,-812 556.16,-790 373.16,-790"/>
<text text-anchor="start" x="376.01" y="-796.4" font-family="Times,serif" font-size="14.00">index_popular_shows_show_id</text>
</g>
<!-- popular_shows&#45;&gt;shows -->
<g id="edge2" class="edge">
<title>popular_shows:show_id&#45;&gt;shows:id</title>
<path fill="none" stroke="black" stroke-dasharray="5,2" d="M557.16,-889C666.12,-889 615.29,-710.69 714.27,-699.55"/>
<polygon fill="black" stroke="black" points="714.53,-703.04 724.32,-699 714.15,-696.05 714.53,-703.04"/>
<text text-anchor="middle" x="642.99" y="-820.2" font-family="Times,serif" font-size="14.00">1&#45;1</text>
</g>
<!-- users -->
<g id="node4" class="node">
<title>users</title>
<polygon fill="#caff70" stroke="transparent" points="45,-652 45,-674 159,-674 159,-652 45,-652"/>
<polygon fill="none" stroke="black" points="45,-652 45,-674 159,-674 159,-652 45,-652"/>
<text text-anchor="start" x="87.62" y="-659.4" font-family="Times,serif" font-weight="bold" font-size="14.00">users</text>
<polygon fill="none" stroke="black" points="45,-630 45,-652 159,-652 159,-630 45,-630"/>
<text text-anchor="start" x="62.93" y="-637.4" font-family="Times,serif" font-weight="bold" font-size="14.00">id: </text>
<text text-anchor="start" x="81.21" y="-637.4" font-family="Times,serif" font-weight="bold" font-style="italic" font-size="14.00">INTEGER</text>
<polygon fill="none" stroke="black" points="45,-608 45,-630 159,-630 159,-608 45,-608"/>
<text text-anchor="start" x="53.6" y="-615.4" font-family="Times,serif" font-size="14.00">username: </text>
<text text-anchor="start" x="114.63" y="-615.4" font-family="Times,serif" font-style="italic" font-size="14.00">TEXT</text>
<polygon fill="none" stroke="black" points="45,-586 45,-608 159,-608 159,-586 45,-586"/>
<text text-anchor="start" x="65.26" y="-593.4" font-family="Times,serif" font-size="14.00">name: </text>
<text text-anchor="start" x="102.97" y="-593.4" font-family="Times,serif" font-style="italic" font-size="14.00">TEXT</text>
<polygon fill="none" stroke="black" points="45,-564 45,-586 159,-586 159,-564 45,-564"/>
<text text-anchor="start" x="47.76" y="-571.4" font-family="Times,serif" font-size="14.00">joined_date: </text>
<text text-anchor="start" x="120.47" y="-571.4" font-family="Times,serif" font-style="italic" font-size="14.00">TEXT</text>
<polygon fill="none" stroke="black" points="45,-542 45,-564 159,-564 159,-542 45,-542"/>
<text text-anchor="start" x="57.87" y="-549.4" font-family="Times,serif" font-size="14.00">location: </text>
<text text-anchor="start" x="110.36" y="-549.4" font-family="Times,serif" font-style="italic" font-size="14.00">TEXT</text>
<polygon fill="none" stroke="black" points="45,-520 45,-542 159,-542 159,-520 45,-520"/>
<text text-anchor="start" x="64.87" y="-527.4" font-family="Times,serif" font-size="14.00">about: </text>
<text text-anchor="start" x="103.37" y="-527.4" font-family="Times,serif" font-style="italic" font-size="14.00">TEXT</text>
<polygon fill="none" stroke="black" points="45,-498 45,-520 159,-520 159,-498 45,-498"/>
<text text-anchor="start" x="52.05" y="-505.4" font-family="Times,serif" font-size="14.00">avatar_url: </text>
<text text-anchor="start" x="116.19" y="-505.4" font-family="Times,serif" font-style="italic" font-size="14.00">TEXT</text>
</g>
<!-- watched_entries -->
<g id="node5" class="node">
<title>watched_entries</title>
<polygon fill="#caff70" stroke="transparent" points="370.16,-732 370.16,-754 559.16,-754 559.16,-732 370.16,-732"/>
<polygon fill="none" stroke="black" points="370.16,-732 370.16,-754 559.16,-754 559.16,-732 370.16,-732"/>
<text text-anchor="start" x="419.18" y="-739.4" font-family="Times,serif" font-weight="bold" font-size="14.00">watched_entries</text>
<polygon fill="none" stroke="black" points="370.16,-710 370.16,-732 559.16,-732 559.16,-710 370.16,-710"/>
<text text-anchor="start" x="425.59" y="-717.4" font-family="Times,serif" font-weight="bold" font-size="14.00">id: </text>
<text text-anchor="start" x="443.87" y="-717.4" font-family="Times,serif" font-weight="bold" font-style="italic" font-size="14.00">INTEGER</text>
<polygon fill="none" stroke="black" points="370.16,-688 370.16,-710 559.16,-710 559.16,-688 370.16,-688"/>
<text text-anchor="start" x="407.31" y="-695.4" font-family="Times,serif" font-size="14.00">show_id: </text>
<text text-anchor="start" x="462.14" y="-695.4" font-family="Times,serif" font-style="italic" font-size="14.00">INTEGER</text>
<polygon fill="none" stroke="black" points="370.16,-666 370.16,-688 559.16,-688 559.16,-666 370.16,-666"/>
<text text-anchor="start" x="406.54" y="-673.4" font-family="Times,serif" font-size="14.00">last_watched: </text>
<text text-anchor="start" x="487.01" y="-673.4" font-family="Times,serif" font-style="italic" font-size="14.00">TEXT</text>
<polygon fill="#c1cdcd" stroke="transparent" points="370.16,-644 370.16,-666 559.16,-666 559.16,-644 370.16,-644"/>
<polygon fill="none" stroke="black" points="370.16,-644 370.16,-666 559.16,-666 559.16,-644 370.16,-644"/>
<text text-anchor="start" x="444.45" y="-651.4" font-family="Times,serif" font-style="italic" font-size="14.00">Indices</text>
<polygon fill="none" stroke="black" points="370.16,-622 370.16,-644 559.16,-644 559.16,-622 370.16,-622"/>
<text text-anchor="start" x="372.91" y="-628.4" font-family="Times,serif" font-size="14.00">index_watched_entries_show_id</text>
</g>
<!-- watched_entries&#45;&gt;shows -->
<g id="edge3" class="edge">
<title>watched_entries:show_id&#45;&gt;shows:id</title>
<path fill="none" stroke="black" stroke-dasharray="5,2" d="M560.16,-699C629.56,-699 649.45,-699 714.01,-699"/>
<polygon fill="black" stroke="black" points="714.32,-702.5 724.32,-699 714.32,-695.5 714.32,-702.5"/>
<text text-anchor="middle" x="642.99" y="-703.2" font-family="Times,serif" font-size="14.00">1&#45;1</text>
</g>
<!-- myshows_entries -->
<g id="node6" class="node">
<title>myshows_entries</title>
<polygon fill="#caff70" stroke="transparent" points="367.16,-564 367.16,-586 562.16,-586 562.16,-564 367.16,-564"/>
<polygon fill="none" stroke="black" points="367.16,-564 367.16,-586 562.16,-586 562.16,-564 367.16,-564"/>
<text text-anchor="start" x="416.06" y="-571.4" font-family="Times,serif" font-weight="bold" font-size="14.00">myshows_entries</text>
<polygon fill="none" stroke="black" points="367.16,-542 367.16,-564 562.16,-564 562.16,-542 367.16,-542"/>
<text text-anchor="start" x="425.59" y="-549.4" font-family="Times,serif" font-weight="bold" font-size="14.00">id: </text>
<text text-anchor="start" x="443.87" y="-549.4" font-family="Times,serif" font-weight="bold" font-style="italic" font-size="14.00">INTEGER</text>
<polygon fill="none" stroke="black" points="367.16,-520 367.16,-542 562.16,-542 562.16,-520 367.16,-520"/>
<text text-anchor="start" x="407.31" y="-527.4" font-family="Times,serif" font-size="14.00">show_id: </text>
<text text-anchor="start" x="462.14" y="-527.4" font-family="Times,serif" font-style="italic" font-size="14.00">INTEGER</text>
<polygon fill="#c1cdcd" stroke="transparent" points="367.16,-498 367.16,-520 562.16,-520 562.16,-498 367.16,-498"/>
<polygon fill="none" stroke="black" points="367.16,-498 367.16,-520 562.16,-520 562.16,-498 367.16,-498"/>
<text text-anchor="start" x="444.45" y="-505.4" font-family="Times,serif" font-style="italic" font-size="14.00">Indices</text>
<polygon fill="none" stroke="black" points="367.16,-476 367.16,-498 562.16,-498 562.16,-476 367.16,-476"/>
<text text-anchor="start" x="369.79" y="-482.4" font-family="Times,serif" font-size="14.00">index_myshows_entries_show_id</text>
</g>
<!-- myshows_entries&#45;&gt;shows -->
<g id="edge4" class="edge">
<title>myshows_entries:show_id&#45;&gt;shows:id</title>
<path fill="none" stroke="black" stroke-dasharray="5,2" d="M561.66,-531C610.28,-531 664.81,-678.04 714.19,-697"/>
<polygon fill="black" stroke="black" points="713.83,-700.49 724.32,-699 715.19,-693.63 713.83,-700.49"/>
<text text-anchor="middle" x="642.99" y="-629.2" font-family="Times,serif" font-size="14.00">1&#45;1</text>
</g>
<!-- seasons -->
<g id="node7" class="node">
<title>seasons</title>
<polygon fill="#caff70" stroke="transparent" points="369.16,-418 369.16,-440 560.16,-440 560.16,-418 369.16,-418"/>
<polygon fill="none" stroke="black" points="369.16,-418 369.16,-440 560.16,-440 560.16,-418 369.16,-418"/>
<text text-anchor="start" x="443.28" y="-425.4" font-family="Times,serif" font-weight="bold" font-size="14.00">seasons</text>
<polygon fill="none" stroke="black" points="369.16,-396 369.16,-418 560.16,-418 560.16,-396 369.16,-396"/>
<text text-anchor="start" x="425.59" y="-403.4" font-family="Times,serif" font-weight="bold" font-size="14.00">id: </text>
<text text-anchor="start" x="443.87" y="-403.4" font-family="Times,serif" font-weight="bold" font-style="italic" font-size="14.00">INTEGER</text>
<polygon fill="none" stroke="black" points="369.16,-374 369.16,-396 560.16,-396 560.16,-374 369.16,-374"/>
<text text-anchor="start" x="407.31" y="-381.4" font-family="Times,serif" font-size="14.00">show_id: </text>
<text text-anchor="start" x="462.14" y="-381.4" font-family="Times,serif" font-style="italic" font-size="14.00">INTEGER</text>
<polygon fill="none" stroke="black" points="369.16,-352 369.16,-374 560.16,-374 560.16,-352 369.16,-352"/>
<text text-anchor="start" x="409.26" y="-359.4" font-family="Times,serif" font-size="14.00">trakt_id: </text>
<text text-anchor="start" x="460.2" y="-359.4" font-family="Times,serif" font-style="italic" font-size="14.00">INTEGER</text>
<polygon fill="none" stroke="black" points="369.16,-330 369.16,-352 560.16,-352 560.16,-330 369.16,-330"/>
<text text-anchor="start" x="407.7" y="-337.4" font-family="Times,serif" font-size="14.00">tmdb_id: </text>
<text text-anchor="start" x="461.76" y="-337.4" font-family="Times,serif" font-style="italic" font-size="14.00">INTEGER</text>
<polygon fill="none" stroke="black" points="369.16,-308 369.16,-330 560.16,-330 560.16,-308 369.16,-308"/>
<text text-anchor="start" x="432.19" y="-315.4" font-family="Times,serif" font-size="14.00">title: </text>
<text text-anchor="start" x="461.36" y="-315.4" font-family="Times,serif" font-style="italic" font-size="14.00">TEXT</text>
<polygon fill="none" stroke="black" points="369.16,-286 369.16,-308 560.16,-308 560.16,-286 369.16,-286"/>
<text text-anchor="start" x="417.04" y="-293.4" font-family="Times,serif" font-size="14.00">overview: </text>
<text text-anchor="start" x="476.52" y="-293.4" font-family="Times,serif" font-style="italic" font-size="14.00">TEXT</text>
<polygon fill="none" stroke="black" points="369.16,-264 369.16,-286 560.16,-286 560.16,-264 369.16,-264"/>
<text text-anchor="start" x="409.65" y="-271.4" font-family="Times,serif" font-size="14.00">number: </text>
<text text-anchor="start" x="459.8" y="-271.4" font-family="Times,serif" font-style="italic" font-size="14.00">INTEGER</text>
<polygon fill="none" stroke="black" points="369.16,-242 369.16,-264 560.16,-264 560.16,-242 369.16,-242"/>
<text text-anchor="start" x="405.37" y="-249.4" font-family="Times,serif" font-size="14.00">ep_count: </text>
<text text-anchor="start" x="464.08" y="-249.4" font-family="Times,serif" font-style="italic" font-size="14.00">INTEGER</text>
<polygon fill="none" stroke="black" points="369.16,-220 369.16,-242 560.16,-242 560.16,-220 369.16,-220"/>
<text text-anchor="start" x="406.93" y="-227.4" font-family="Times,serif" font-size="14.00">ep_aired: </text>
<text text-anchor="start" x="462.52" y="-227.4" font-family="Times,serif" font-style="italic" font-size="14.00">INTEGER</text>
<polygon fill="none" stroke="black" points="369.16,-198 369.16,-220 560.16,-220 560.16,-198 369.16,-198"/>
<text text-anchor="start" x="426.36" y="-205.4" font-family="Times,serif" font-size="14.00">rating: </text>
<text text-anchor="start" x="466.41" y="-205.4" font-family="Times,serif" font-style="italic" font-size="14.00">REAL</text>
<polygon fill="none" stroke="black" points="369.16,-176 369.16,-198 560.16,-198 560.16,-176 369.16,-176"/>
<text text-anchor="start" x="420.15" y="-183.4" font-family="Times,serif" font-size="14.00">network: </text>
<text text-anchor="start" x="473.41" y="-183.4" font-family="Times,serif" font-style="italic" font-size="14.00">TEXT</text>
<polygon fill="none" stroke="black" points="369.16,-154 369.16,-176 560.16,-176 560.16,-154 369.16,-154"/>
<text text-anchor="start" x="416.26" y="-161.4" font-family="Times,serif" font-size="14.00">votes: </text>
<text text-anchor="start" x="453.2" y="-161.4" font-family="Times,serif" font-style="italic" font-size="14.00">INTEGER</text>
<polygon fill="none" stroke="black" points="369.16,-132 369.16,-154 560.16,-154 560.16,-132 369.16,-132"/>
<text text-anchor="start" x="392.53" y="-139.4" font-family="Times,serif" font-size="14.00">tmdb_poster_path: </text>
<text text-anchor="start" x="501.02" y="-139.4" font-family="Times,serif" font-style="italic" font-size="14.00">TEXT</text>
<polygon fill="none" stroke="black" points="369.16,-110 369.16,-132 560.16,-132 560.16,-110 369.16,-110"/>
<text text-anchor="start" x="383.59" y="-117.4" font-family="Times,serif" font-size="14.00">tmdb_backdrop_path: </text>
<text text-anchor="start" x="509.96" y="-117.4" font-family="Times,serif" font-style="italic" font-size="14.00">TEXT</text>
<polygon fill="none" stroke="black" points="369.16,-88 369.16,-110 560.16,-110 560.16,-88 369.16,-88"/>
<text text-anchor="start" x="404.59" y="-95.4" font-family="Times,serif" font-size="14.00">trakt_updated: </text>
<text text-anchor="start" x="488.96" y="-95.4" font-family="Times,serif" font-style="italic" font-size="14.00">TEXT</text>
<polygon fill="none" stroke="black" points="369.16,-66 369.16,-88 560.16,-88 560.16,-66 369.16,-66"/>
<text text-anchor="start" x="403.03" y="-73.4" font-family="Times,serif" font-size="14.00">tmdb_updated: </text>
<text text-anchor="start" x="490.52" y="-73.4" font-family="Times,serif" font-style="italic" font-size="14.00">TEXT</text>
<polygon fill="none" stroke="black" points="369.16,-44 369.16,-66 560.16,-66 560.16,-44 369.16,-44"/>
<text text-anchor="start" x="393.32" y="-51.4" font-family="Times,serif" font-size="14.00">episodes_updated: </text>
<text text-anchor="start" x="500.24" y="-51.4" font-family="Times,serif" font-style="italic" font-size="14.00">TEXT</text>
<polygon fill="#c1cdcd" stroke="transparent" points="369.16,-22 369.16,-44 560.16,-44 560.16,-22 369.16,-22"/>
<polygon fill="none" stroke="black" points="369.16,-22 369.16,-44 560.16,-44 560.16,-22 369.16,-22"/>
<text text-anchor="start" x="444.45" y="-29.4" font-family="Times,serif" font-style="italic" font-size="14.00">Indices</text>
<polygon fill="none" stroke="black" points="369.16,0 369.16,-22 560.16,-22 560.16,0 369.16,0"/>
<text text-anchor="start" x="372.12" y="-6.4" font-family="Times,serif" font-size="14.00">index_seasons_show_id_number</text>
</g>
<!-- seasons&#45;&gt;shows -->
<g id="edge5" class="edge">
<title>seasons:show_id&#45;&gt;shows:id</title>
<path fill="none" stroke="black" stroke-dasharray="5,2" d="M561.16,-385C636.26,-385 645.01,-671.42 714.15,-697.16"/>
<polygon fill="black" stroke="black" points="713.86,-700.66 724.32,-699 715.11,-693.77 713.86,-700.66"/>
<text text-anchor="middle" x="642.99" y="-574.2" font-family="Times,serif" font-size="14.00">1&#45;1</text>
</g>
<!-- episodes -->
<g id="node8" class="node">
<title>episodes</title>
<polygon fill="#caff70" stroke="transparent" points="0,-440 0,-462 204,-462 204,-440 0,-440"/>
<polygon fill="none" stroke="black" points="0,-440 0,-462 204,-462 204,-440 0,-440"/>
<text text-anchor="start" x="77.9" y="-447.4" font-family="Times,serif" font-weight="bold" font-size="14.00">episodes</text>
<polygon fill="none" stroke="black" points="0,-418 0,-440 204,-440 204,-418 0,-418"/>
<text text-anchor="start" x="62.93" y="-425.4" font-family="Times,serif" font-weight="bold" font-size="14.00">id: </text>
<text text-anchor="start" x="81.21" y="-425.4" font-family="Times,serif" font-weight="bold" font-style="italic" font-size="14.00">INTEGER</text>
<polygon fill="none" stroke="black" points="0,-396 0,-418 204,-418 204,-396 0,-396"/>
<text text-anchor="start" x="40.77" y="-403.4" font-family="Times,serif" font-size="14.00">season_id: </text>
<text text-anchor="start" x="103.37" y="-403.4" font-family="Times,serif" font-style="italic" font-size="14.00">INTEGER</text>
<polygon fill="none" stroke="black" points="0,-374 0,-396 204,-396 204,-374 0,-374"/>
<text text-anchor="start" x="46.6" y="-381.4" font-family="Times,serif" font-size="14.00">trakt_id: </text>
<text text-anchor="start" x="97.53" y="-381.4" font-family="Times,serif" font-style="italic" font-size="14.00">INTEGER</text>
<polygon fill="none" stroke="black" points="0,-352 0,-374 204,-374 204,-352 0,-352"/>
<text text-anchor="start" x="45.03" y="-359.4" font-family="Times,serif" font-size="14.00">tmdb_id: </text>
<text text-anchor="start" x="99.1" y="-359.4" font-family="Times,serif" font-style="italic" font-size="14.00">INTEGER</text>
<polygon fill="none" stroke="black" points="0,-330 0,-352 204,-352 204,-330 0,-330"/>
<text text-anchor="start" x="69.53" y="-337.4" font-family="Times,serif" font-size="14.00">title: </text>
<text text-anchor="start" x="98.7" y="-337.4" font-family="Times,serif" font-style="italic" font-size="14.00">TEXT</text>
<polygon fill="none" stroke="black" points="0,-308 0,-330 204,-330 204,-308 0,-308"/>
<text text-anchor="start" x="54.38" y="-315.4" font-family="Times,serif" font-size="14.00">overview: </text>
<text text-anchor="start" x="113.86" y="-315.4" font-family="Times,serif" font-style="italic" font-size="14.00">TEXT</text>
<polygon fill="none" stroke="black" points="0,-286 0,-308 204,-308 204,-286 0,-286"/>
<text text-anchor="start" x="46.99" y="-293.4" font-family="Times,serif" font-size="14.00">number: </text>
<text text-anchor="start" x="97.14" y="-293.4" font-family="Times,serif" font-style="italic" font-size="14.00">INTEGER</text>
<polygon fill="none" stroke="black" points="0,-264 0,-286 204,-286 204,-264 0,-264"/>
<text text-anchor="start" x="51.66" y="-271.4" font-family="Times,serif" font-size="14.00">first_aired: </text>
<text text-anchor="start" x="116.58" y="-271.4" font-family="Times,serif" font-style="italic" font-size="14.00">TEXT</text>
<polygon fill="none" stroke="black" points="0,-242 0,-264 204,-264 204,-242 0,-242"/>
<text text-anchor="start" x="63.7" y="-249.4" font-family="Times,serif" font-size="14.00">rating: </text>
<text text-anchor="start" x="103.75" y="-249.4" font-family="Times,serif" font-style="italic" font-size="14.00">REAL</text>
<polygon fill="none" stroke="black" points="0,-220 0,-242 204,-242 204,-220 0,-220"/>
<text text-anchor="start" x="53.6" y="-227.4" font-family="Times,serif" font-size="14.00">votes: </text>
<text text-anchor="start" x="90.54" y="-227.4" font-family="Times,serif" font-style="italic" font-size="14.00">INTEGER</text>
<polygon fill="none" stroke="black" points="0,-198 0,-220 204,-220 204,-198 0,-198"/>
<text text-anchor="start" x="29.87" y="-205.4" font-family="Times,serif" font-size="14.00">tmdb_poster_path: </text>
<text text-anchor="start" x="138.36" y="-205.4" font-family="Times,serif" font-style="italic" font-size="14.00">TEXT</text>
<polygon fill="none" stroke="black" points="0,-176 0,-198 204,-198 204,-176 0,-176"/>
<text text-anchor="start" x="20.93" y="-183.4" font-family="Times,serif" font-size="14.00">tmdb_backdrop_path: </text>
<text text-anchor="start" x="147.3" y="-183.4" font-family="Times,serif" font-style="italic" font-size="14.00">TEXT</text>
<polygon fill="none" stroke="black" points="0,-154 0,-176 204,-176 204,-154 0,-154"/>
<text text-anchor="start" x="41.93" y="-161.4" font-family="Times,serif" font-size="14.00">trakt_updated: </text>
<text text-anchor="start" x="126.3" y="-161.4" font-family="Times,serif" font-style="italic" font-size="14.00">TEXT</text>
<polygon fill="none" stroke="black" points="0,-132 0,-154 204,-154 204,-132 0,-132"/>
<text text-anchor="start" x="40.37" y="-139.4" font-family="Times,serif" font-size="14.00">tmdb_updated: </text>
<text text-anchor="start" x="127.86" y="-139.4" font-family="Times,serif" font-style="italic" font-size="14.00">TEXT</text>
<polygon fill="#c1cdcd" stroke="transparent" points="0,-110 0,-132 204,-132 204,-110 0,-110"/>
<polygon fill="none" stroke="black" points="0,-110 0,-132 204,-132 204,-110 0,-110"/>
<text text-anchor="start" x="81.79" y="-117.4" font-family="Times,serif" font-style="italic" font-size="14.00">Indices</text>
<polygon fill="none" stroke="black" points="0,-88 0,-110 204,-110 204,-88 0,-88"/>
<text text-anchor="start" x="2.86" y="-94.4" font-family="Times,serif" font-size="14.00">index_episodes_season_id_number</text>
</g>
<!-- episodes&#45;&gt;seasons -->
<g id="edge6" class="edge">
<title>episodes:season_id&#45;&gt;seasons:id</title>
<path fill="none" stroke="black" stroke-dasharray="5,2" d="M204,-407C273.4,-407 293.29,-407 357.85,-407"/>
<polygon fill="black" stroke="black" points="358.16,-410.5 368.16,-407 358.16,-403.5 358.16,-410.5"/>
<text text-anchor="middle" x="285.33" y="-411.2" font-family="Times,serif" font-size="14.00">1&#45;1</text>
</g>
</g>
</svg>
