<svg width="1363px" height="1718px"
 viewBox="0.00 0.00 1362.98 1718.00" xmlns="http://www.w3.org/2000/svg" xmlns:xlink="http://www.w3.org/1999/xlink">
<g id="graph0" class="graph" transform="scale(1.0 1.0) rotate(0) translate(36 1682)">
<polygon fill="white" stroke="transparent" points="-36,36 -36,-1682 1326.98,-1682 1326.98,36 -36,36"/>
<!-- shows -->
<g id="node1" class="node">
<title>shows</title>
<polygon fill="#caff70" stroke="transparent" points="1116.48,-1001 1116.48,-1023 1291.48,-1023 1291.48,-1001 1116.48,-1001"/>
<polygon fill="none" stroke="black" points="1116.48,-1001 1116.48,-1023 1291.48,-1023 1291.48,-1001 1116.48,-1001"/>
<text text-anchor="start" x="1186.48" y="-1008.4" font-family="Times,serif" font-weight="bold" font-size="14.00">shows</text>
<polygon fill="none" stroke="black" points="1116.48,-979 1116.48,-1001 1291.48,-1001 1291.48,-979 1116.48,-979"/>
<text text-anchor="start" x="1164.91" y="-986.4" font-family="Times,serif" font-weight="bold" font-size="14.00">id: </text>
<text text-anchor="start" x="1183.19" y="-986.4" font-family="Times,serif" font-weight="bold" font-style="italic" font-size="14.00">INTEGER</text>
<polygon fill="none" stroke="black" points="1116.48,-957 1116.48,-979 1291.48,-979 1291.48,-957 1116.48,-957"/>
<text text-anchor="start" x="1171.52" y="-964.4" font-family="Times,serif" font-size="14.00">title: </text>
<text text-anchor="start" x="1200.68" y="-964.4" font-family="Times,serif" font-style="italic" font-size="14.00">TEXT</text>
<polygon fill="none" stroke="black" points="1116.48,-935 1116.48,-957 1291.48,-957 1291.48,-935 1116.48,-935"/>
<text text-anchor="start" x="1146.24" y="-942.4" font-family="Times,serif" font-size="14.00">original_title: </text>
<text text-anchor="start" x="1225.96" y="-942.4" font-family="Times,serif" font-style="italic" font-size="14.00">TEXT</text>
<polygon fill="none" stroke="black" points="1116.48,-913 1116.48,-935 1291.48,-935 1291.48,-913 1116.48,-913"/>
<text text-anchor="start" x="1148.58" y="-920.4" font-family="Times,serif" font-size="14.00">trakt_id: </text>
<text text-anchor="start" x="1199.52" y="-920.4" font-family="Times,serif" font-style="italic" font-size="14.00">INTEGER</text>
<polygon fill="none" stroke="black" points="1116.48,-891 1116.48,-913 1291.48,-913 1291.48,-891 1116.48,-891"/>
<text text-anchor="start" x="1147.02" y="-898.4" font-family="Times,serif" font-size="14.00">tmdb_id: </text>
<text text-anchor="start" x="1201.08" y="-898.4" font-family="Times,serif" font-style="italic" font-size="14.00">INTEGER</text>
<polygon fill="none" stroke="black" points="1116.48,-869 1116.48,-891 1291.48,-891 1291.48,-869 1116.48,-869"/>
<text text-anchor="start" x="1159.07" y="-876.4" font-family="Times,serif" font-size="14.00">imdb_id: </text>
<text text-anchor="start" x="1213.13" y="-876.4" font-family="Times,serif" font-style="italic" font-size="14.00">TEXT</text>
<polygon fill="none" stroke="black" points="1116.48,-847 1116.48,-869 1291.48,-869 1291.48,-847 1116.48,-847"/>
<text text-anchor="start" x="1156.36" y="-854.4" font-family="Times,serif" font-size="14.00">overview: </text>
<text text-anchor="start" x="1215.84" y="-854.4" font-family="Times,serif" font-style="italic" font-size="14.00">TEXT</text>
<polygon fill="none" stroke="black" points="1116.48,-825 1116.48,-847 1291.48,-847 1291.48,-825 1116.48,-825"/>
<text text-anchor="start" x="1153.64" y="-832.4" font-family="Times,serif" font-size="14.00">homepage: </text>
<text text-anchor="start" x="1218.56" y="-832.4" font-family="Times,serif" font-style="italic" font-size="14.00">TEXT</text>
<polygon fill="none" stroke="black" points="1116.48,-803 1116.48,-825 1291.48,-825 1291.48,-803 1116.48,-803"/>
<text text-anchor="start" x="1149.36" y="-810.4" font-family="Times,serif" font-size="14.00">trakt_rating: </text>
<text text-anchor="start" x="1222.06" y="-810.4" font-family="Times,serif" font-style="italic" font-size="14.00">REAL</text>
<polygon fill="none" stroke="black" points="1116.48,-781 1116.48,-803 1291.48,-803 1291.48,-781 1116.48,-781"/>
<text text-anchor="start" x="1148.59" y="-788.4" font-family="Times,serif" font-size="14.00">certification: </text>
<text text-anchor="start" x="1223.61" y="-788.4" font-family="Times,serif" font-style="italic" font-size="14.00">TEXT</text>
<polygon fill="none" stroke="black" points="1116.48,-759 1116.48,-781 1291.48,-781 1291.48,-759 1116.48,-759"/>
<text text-anchor="start" x="1153.64" y="-766.4" font-family="Times,serif" font-size="14.00">first_aired: </text>
<text text-anchor="start" x="1218.56" y="-766.4" font-family="Times,serif" font-style="italic" font-size="14.00">TEXT</text>
<polygon fill="none" stroke="black" points="1116.48,-737 1116.48,-759 1291.48,-759 1291.48,-737 1116.48,-737"/>
<text text-anchor="start" x="1161.02" y="-744.4" font-family="Times,serif" font-size="14.00">country: </text>
<text text-anchor="start" x="1211.18" y="-744.4" font-family="Times,serif" font-style="italic" font-size="14.00">TEXT</text>
<polygon fill="none" stroke="black" points="1116.48,-715 1116.48,-737 1291.48,-737 1291.48,-715 1116.48,-715"/>
<text text-anchor="start" x="1159.47" y="-722.4" font-family="Times,serif" font-size="14.00">network: </text>
<text text-anchor="start" x="1212.73" y="-722.4" font-family="Times,serif" font-style="italic" font-size="14.00">TEXT</text>
<polygon fill="none" stroke="black" points="1116.48,-693 1116.48,-715 1291.48,-715 1291.48,-693 1116.48,-693"/>
<text text-anchor="start" x="1148.58" y="-700.4" font-family="Times,serif" font-size="14.00">runtime: </text>
<text text-anchor="start" x="1199.52" y="-700.4" font-family="Times,serif" font-style="italic" font-size="14.00">INTEGER</text>
<polygon fill="none" stroke="black" points="1116.48,-671 1116.48,-693 1291.48,-693 1291.48,-671 1116.48,-671"/>
<text text-anchor="start" x="1164.14" y="-678.4" font-family="Times,serif" font-size="14.00">genres: </text>
<text text-anchor="start" x="1208.06" y="-678.4" font-family="Times,serif" font-style="italic" font-size="14.00">TEXT</text>
<polygon fill="none" stroke="black" points="1116.48,-649 1116.48,-671 1291.48,-671 1291.48,-649 1116.48,-649"/>
<text text-anchor="start" x="1119.04" y="-656.4" font-family="Times,serif" font-size="14.00">last_trakt_data_update: </text>
<text text-anchor="start" x="1253.16" y="-656.4" font-family="Times,serif" font-style="italic" font-size="14.00">TEXT</text>
<polygon fill="#c1cdcd" stroke="transparent" points="1116.48,-627 1116.48,-649 1291.48,-649 1291.48,-627 1116.48,-627"/>
<polygon fill="none" stroke="black" points="1116.48,-627 1116.48,-649 1291.48,-649 1291.48,-627 1116.48,-627"/>
<text text-anchor="start" x="1183.77" y="-634.4" font-family="Times,serif" font-style="italic" font-size="14.00">Indices</text>
<polygon fill="none" stroke="black" points="1116.48,-605 1116.48,-627 1291.48,-627 1291.48,-605 1116.48,-605"/>
<text text-anchor="start" x="1142.16" y="-611.4" font-family="Times,serif" font-size="14.00">index_shows_trakt_id</text>
<polygon fill="none" stroke="black" points="1116.48,-583 1116.48,-605 1291.48,-605 1291.48,-583 1116.48,-583"/>
<text text-anchor="start" x="1140.6" y="-589.4" font-family="Times,serif" font-size="14.00">index_shows_tmdb_id</text>
</g>
<!-- shows_fts -->
<g id="node2" class="node">
<title>shows_fts</title>
<polygon fill="#caff70" stroke="transparent" points="59.5,-1010 59.5,-1032 180.5,-1032 180.5,-1010 59.5,-1010"/>
<polygon fill="none" stroke="black" points="59.5,-1010 59.5,-1032 180.5,-1032 180.5,-1010 59.5,-1010"/>
<text text-anchor="start" x="92" y="-1017.4" font-family="Times,serif" font-weight="bold" font-size="14.00">shows_fts</text>
<polygon fill="none" stroke="black" points="59.5,-988 59.5,-1010 180.5,-1010 180.5,-988 59.5,-988"/>
<text text-anchor="start" x="87.53" y="-995.4" font-family="Times,serif" font-size="14.00">title: </text>
<text text-anchor="start" x="116.7" y="-995.4" font-family="Times,serif" font-style="italic" font-size="14.00">TEXT</text>
<polygon fill="none" stroke="black" points="59.5,-966 59.5,-988 180.5,-988 180.5,-966 59.5,-966"/>
<text text-anchor="start" x="62.26" y="-973.4" font-family="Times,serif" font-size="14.00">original_title: </text>
<text text-anchor="start" x="141.98" y="-973.4" font-family="Times,serif" font-style="italic" font-size="14.00">TEXT</text>
</g>
<!-- trending_shows -->
<g id="node3" class="node">
<title>trending_shows</title>
<polygon fill="#caff70" stroke="transparent" points="753.32,-1624 753.32,-1646 940.32,-1646 940.32,-1624 753.32,-1624"/>
<polygon fill="none" stroke="black" points="753.32,-1624 753.32,-1646 940.32,-1646 940.32,-1624 753.32,-1624"/>
<text text-anchor="start" x="802.5" y="-1631.4" font-family="Times,serif" font-weight="bold" font-size="14.00">trending_shows</text>
<polygon fill="none" stroke="black" points="753.32,-1602 753.32,-1624 940.32,-1624 940.32,-1602 753.32,-1602"/>
<text text-anchor="start" x="807.75" y="-1609.4" font-family="Times,serif" font-weight="bold" font-size="14.00">id: </text>
<text text-anchor="start" x="826.03" y="-1609.4" font-family="Times,serif" font-weight="bold" font-style="italic" font-size="14.00">INTEGER</text>
<polygon fill="none" stroke="black" points="753.32,-1580 753.32,-1602 940.32,-1602 940.32,-1580 753.32,-1580"/>
<text text-anchor="start" x="789.47" y="-1587.4" font-family="Times,serif" font-size="14.00">show_id: </text>
<text text-anchor="start" x="844.3" y="-1587.4" font-family="Times,serif" font-style="italic" font-size="14.00">INTEGER</text>
<polygon fill="none" stroke="black" points="753.32,-1558 753.32,-1580 940.32,-1580 940.32,-1558 753.32,-1558"/>
<text text-anchor="start" x="799.98" y="-1565.4" font-family="Times,serif" font-size="14.00">page: </text>
<text text-anchor="start" x="833.8" y="-1565.4" font-family="Times,serif" font-style="italic" font-size="14.00">INTEGER</text>
<polygon fill="none" stroke="black" points="753.32,-1536 753.32,-1558 940.32,-1558 940.32,-1536 753.32,-1536"/>
<text text-anchor="start" x="788.32" y="-1543.4" font-family="Times,serif" font-size="14.00">watchers: </text>
<text text-anchor="start" x="845.46" y="-1543.4" font-family="Times,serif" font-style="italic" font-size="14.00">INTEGER</text>
<polygon fill="#c1cdcd" stroke="transparent" points="753.32,-1514 753.32,-1536 940.32,-1536 940.32,-1514 753.32,-1514"/>
<polygon fill="none" stroke="black" points="753.32,-1514 753.32,-1536 940.32,-1536 940.32,-1514 753.32,-1514"/>
<text text-anchor="start" x="826.61" y="-1521.4" font-family="Times,serif" font-style="italic" font-size="14.00">Indices</text>
<polygon fill="none" stroke="black" points="753.32,-1492 753.32,-1514 940.32,-1514 940.32,-1492 753.32,-1492"/>
<text text-anchor="start" x="756.22" y="-1498.4" font-family="Times,serif" font-size="14.00">index_trending_shows_show_id</text>
</g>
<!-- trending_shows&#45;&gt;shows -->
<g id="edge1" class="edge">
<title>trending_shows:show_id&#45;&gt;shows:id</title>
<path fill="none" stroke="black" stroke-dasharray="5,2" d="M941.32,-1591C973.85,-1591 1067.95,-1064.98 1108.42,-997.17"/>
<polygon fill="black" stroke="black" points="1111.13,-999.42 1115.98,-990 1106.32,-994.34 1111.13,-999.42"/>
<text text-anchor="middle" x="1034.65" y="-1294.2" font-family="Times,serif" font-size="14.00">1&#45;1</text>
</g>
<!-- popular_shows -->
<g id="node4" class="node">
<title>popular_shows</title>
<polygon fill="#caff70" stroke="transparent" points="755.32,-1434 755.32,-1456 938.32,-1456 938.32,-1434 755.32,-1434"/>
<polygon fill="none" stroke="black" points="755.32,-1434 755.32,-1456 938.32,-1456 938.32,-1434 755.32,-1434"/>
<text text-anchor="start" x="804.44" y="-1441.4" font-family="Times,serif" font-weight="bold" font-size="14.00">popular_shows</text>
<polygon fill="none" stroke="black" points="755.32,-1412 755.32,-1434 938.32,-1434 938.32,-1412 755.32,-1412"/>
<text text-anchor="start" x="807.75" y="-1419.4" font-family="Times,serif" font-weight="bold" font-size="14.00">id: </text>
<text text-anchor="start" x="826.03" y="-1419.4" font-family="Times,serif" font-weight="bold" font-style="italic" font-size="14.00">INTEGER</text>
<polygon fill="none" stroke="black" points="755.32,-1390 755.32,-1412 938.32,-1412 938.32,-1390 755.32,-1390"/>
<text text-anchor="start" x="789.47" y="-1397.4" font-family="Times,serif" font-size="14.00">show_id: </text>
<text text-anchor="start" x="844.3" y="-1397.4" font-family="Times,serif" font-style="italic" font-size="14.00">INTEGER</text>
<polygon fill="none" stroke="black" points="755.32,-1368 755.32,-1390 938.32,-1390 938.32,-1368 755.32,-1368"/>
<text text-anchor="start" x="799.98" y="-1375.4" font-family="Times,serif" font-size="14.00">page: </text>
<text text-anchor="start" x="833.8" y="-1375.4" font-family="Times,serif" font-style="italic" font-size="14.00">INTEGER</text>
<polygon fill="none" stroke="black" points="755.32,-1346 755.32,-1368 938.32,-1368 938.32,-1346 755.32,-1346"/>
<text text-anchor="start" x="781.71" y="-1353.4" font-family="Times,serif" font-size="14.00">page_order: </text>
<text text-anchor="start" x="852.06" y="-1353.4" font-family="Times,serif" font-style="italic" font-size="14.00">INTEGER</text>
<polygon fill="#c1cdcd" stroke="transparent" points="755.32,-1324 755.32,-1346 938.32,-1346 938.32,-1324 755.32,-1324"/>
<polygon fill="none" stroke="black" points="755.32,-1324 755.32,-1346 938.32,-1346 938.32,-1324 755.32,-1324"/>
<text text-anchor="start" x="826.61" y="-1331.4" font-family="Times,serif" font-style="italic" font-size="14.00">Indices</text>
<polygon fill="none" stroke="black" points="755.32,-1302 755.32,-1324 938.32,-1324 938.32,-1302 755.32,-1302"/>
<text text-anchor="start" x="758.17" y="-1308.4" font-family="Times,serif" font-size="14.00">index_popular_shows_show_id</text>
</g>
<!-- popular_shows&#45;&gt;shows -->
<g id="edge2" class="edge">
<title>popular_shows:show_id&#45;&gt;shows:id</title>
<path fill="none" stroke="black" stroke-dasharray="5,2" d="M939.32,-1401C986.02,-1401 1057.02,-1038.26 1106.66,-994.34"/>
<polygon fill="black" stroke="black" points="1108.39,-997.39 1115.98,-990 1105.44,-991.05 1108.39,-997.39"/>
<text text-anchor="middle" x="1034.65" y="-1199.2" font-family="Times,serif" font-size="14.00">1&#45;1</text>
</g>
<!-- users -->
<g id="node5" class="node">
<title>users</title>
<polygon fill="#caff70" stroke="transparent" points="53.5,-1310 53.5,-1332 186.5,-1332 186.5,-1310 53.5,-1310"/>
<polygon fill="none" stroke="black" points="53.5,-1310 53.5,-1332 186.5,-1332 186.5,-1310 53.5,-1310"/>
<text text-anchor="start" x="105.62" y="-1317.4" font-family="Times,serif" font-weight="bold" font-size="14.00">users</text>
<polygon fill="none" stroke="black" points="53.5,-1288 53.5,-1310 186.5,-1310 186.5,-1288 53.5,-1288"/>
<text text-anchor="start" x="80.93" y="-1295.4" font-family="Times,serif" font-weight="bold" font-size="14.00">id: </text>
<text text-anchor="start" x="99.21" y="-1295.4" font-family="Times,serif" font-weight="bold" font-style="italic" font-size="14.00">INTEGER</text>
<polygon fill="none" stroke="black" points="53.5,-1266 53.5,-1288 186.5,-1288 186.5,-1266 53.5,-1266"/>
<text text-anchor="start" x="71.6" y="-1273.4" font-family="Times,serif" font-size="14.00">username: </text>
<text text-anchor="start" x="132.63" y="-1273.4" font-family="Times,serif" font-style="italic" font-size="14.00">TEXT</text>
<polygon fill="none" stroke="black" points="53.5,-1244 53.5,-1266 186.5,-1266 186.5,-1244 53.5,-1244"/>
<text text-anchor="start" x="83.26" y="-1251.4" font-family="Times,serif" font-size="14.00">name: </text>
<text text-anchor="start" x="120.97" y="-1251.4" font-family="Times,serif" font-style="italic" font-size="14.00">TEXT</text>
<polygon fill="none" stroke="black" points="53.5,-1222 53.5,-1244 186.5,-1244 186.5,-1222 53.5,-1222"/>
<text text-anchor="start" x="65.76" y="-1229.4" font-family="Times,serif" font-size="14.00">joined_date: </text>
<text text-anchor="start" x="138.47" y="-1229.4" font-family="Times,serif" font-style="italic" font-size="14.00">TEXT</text>
<polygon fill="none" stroke="black" points="53.5,-1200 53.5,-1222 186.5,-1222 186.5,-1200 53.5,-1200"/>
<text text-anchor="start" x="75.87" y="-1207.4" font-family="Times,serif" font-size="14.00">location: </text>
<text text-anchor="start" x="128.36" y="-1207.4" font-family="Times,serif" font-style="italic" font-size="14.00">TEXT</text>
<polygon fill="none" stroke="black" points="53.5,-1178 53.5,-1200 186.5,-1200 186.5,-1178 53.5,-1178"/>
<text text-anchor="start" x="82.87" y="-1185.4" font-family="Times,serif" font-size="14.00">about: </text>
<text text-anchor="start" x="121.37" y="-1185.4" font-family="Times,serif" font-style="italic" font-size="14.00">TEXT</text>
<polygon fill="none" stroke="black" points="53.5,-1156 53.5,-1178 186.5,-1178 186.5,-1156 53.5,-1156"/>
<text text-anchor="start" x="70.05" y="-1163.4" font-family="Times,serif" font-size="14.00">avatar_url: </text>
<text text-anchor="start" x="134.19" y="-1163.4" font-family="Times,serif" font-style="italic" font-size="14.00">TEXT</text>
<polygon fill="none" stroke="black" points="53.5,-1134 53.5,-1156 186.5,-1156 186.5,-1134 53.5,-1134"/>
<text text-anchor="start" x="77.43" y="-1141.4" font-family="Times,serif" font-size="14.00">vip: </text>
<text text-anchor="start" x="102.71" y="-1141.4" font-family="Times,serif" font-style="italic" font-size="14.00">INTEGER</text>
<polygon fill="none" stroke="black" points="53.5,-1112 53.5,-1134 186.5,-1134 186.5,-1112 53.5,-1112"/>
<text text-anchor="start" x="69.65" y="-1119.4" font-family="Times,serif" font-size="14.00">is_me: </text>
<text text-anchor="start" x="110.48" y="-1119.4" font-family="Times,serif" font-style="italic" font-size="14.00">INTEGER</text>
<polygon fill="#c1cdcd" stroke="transparent" points="53.5,-1090 53.5,-1112 186.5,-1112 186.5,-1090 53.5,-1090"/>
<polygon fill="none" stroke="black" points="53.5,-1090 53.5,-1112 186.5,-1112 186.5,-1090 53.5,-1090"/>
<text text-anchor="start" x="99.79" y="-1097.4" font-family="Times,serif" font-style="italic" font-size="14.00">Indices</text>
<polygon fill="none" stroke="black" points="53.5,-1068 53.5,-1090 186.5,-1090 186.5,-1068 53.5,-1068"/>
<text text-anchor="start" x="56.25" y="-1074.4" font-family="Times,serif" font-size="14.00">index_users_username</text>
</g>
<!-- watched_entries -->
<g id="node6" class="node">
<title>watched_entries</title>
<polygon fill="#caff70" stroke="transparent" points="752.32,-1244 752.32,-1266 941.32,-1266 941.32,-1244 752.32,-1244"/>
<polygon fill="none" stroke="black" points="752.32,-1244 752.32,-1266 941.32,-1266 941.32,-1244 752.32,-1244"/>
<text text-anchor="start" x="801.34" y="-1251.4" font-family="Times,serif" font-weight="bold" font-size="14.00">watched_entries</text>
<polygon fill="none" stroke="black" points="752.32,-1222 752.32,-1244 941.32,-1244 941.32,-1222 752.32,-1222"/>
<text text-anchor="start" x="807.75" y="-1229.4" font-family="Times,serif" font-weight="bold" font-size="14.00">id: </text>
<text text-anchor="start" x="826.03" y="-1229.4" font-family="Times,serif" font-weight="bold" font-style="italic" font-size="14.00">INTEGER</text>
<polygon fill="none" stroke="black" points="752.32,-1200 752.32,-1222 941.32,-1222 941.32,-1200 752.32,-1200"/>
<text text-anchor="start" x="789.47" y="-1207.4" font-family="Times,serif" font-size="14.00">show_id: </text>
<text text-anchor="start" x="844.3" y="-1207.4" font-family="Times,serif" font-style="italic" font-size="14.00">INTEGER</text>
<polygon fill="none" stroke="black" points="752.32,-1178 752.32,-1200 941.32,-1200 941.32,-1178 752.32,-1178"/>
<text text-anchor="start" x="788.7" y="-1185.4" font-family="Times,serif" font-size="14.00">last_watched: </text>
<text text-anchor="start" x="869.17" y="-1185.4" font-family="Times,serif" font-style="italic" font-size="14.00">TEXT</text>
<polygon fill="#c1cdcd" stroke="transparent" points="752.32,-1156 752.32,-1178 941.32,-1178 941.32,-1156 752.32,-1156"/>
<polygon fill="none" stroke="black" points="752.32,-1156 752.32,-1178 941.32,-1178 941.32,-1156 752.32,-1156"/>
<text text-anchor="start" x="826.61" y="-1163.4" font-family="Times,serif" font-style="italic" font-size="14.00">Indices</text>
<polygon fill="none" stroke="black" points="752.32,-1134 752.32,-1156 941.32,-1156 941.32,-1134 752.32,-1134"/>
<text text-anchor="start" x="755.07" y="-1140.4" font-family="Times,serif" font-size="14.00">index_watched_entries_show_id</text>
</g>
<!-- watched_entries&#45;&gt;shows -->
<g id="edge3" class="edge">
<title>watched_entries:show_id&#45;&gt;shows:id</title>
<path fill="none" stroke="black" stroke-dasharray="5,2" d="M942.32,-1211C1063.7,-1211 995.22,-1002.34 1105.84,-990.52"/>
<polygon fill="black" stroke="black" points="1106.17,-994.01 1115.98,-990 1105.82,-987.02 1106.17,-994.01"/>
<text text-anchor="middle" x="1034.65" y="-1117.2" font-family="Times,serif" font-size="14.00">1&#45;1</text>
</g>
<!-- myshows_entries -->
<g id="node7" class="node">
<title>myshows_entries</title>
<polygon fill="#caff70" stroke="transparent" points="749.32,-1076 749.32,-1098 944.32,-1098 944.32,-1076 749.32,-1076"/>
<polygon fill="none" stroke="black" points="749.32,-1076 749.32,-1098 944.32,-1098 944.32,-1076 749.32,-1076"/>
<text text-anchor="start" x="798.22" y="-1083.4" font-family="Times,serif" font-weight="bold" font-size="14.00">myshows_entries</text>
<polygon fill="none" stroke="black" points="749.32,-1054 749.32,-1076 944.32,-1076 944.32,-1054 749.32,-1054"/>
<text text-anchor="start" x="807.75" y="-1061.4" font-family="Times,serif" font-weight="bold" font-size="14.00">id: </text>
<text text-anchor="start" x="826.03" y="-1061.4" font-family="Times,serif" font-weight="bold" font-style="italic" font-size="14.00">INTEGER</text>
<polygon fill="none" stroke="black" points="749.32,-1032 749.32,-1054 944.32,-1054 944.32,-1032 749.32,-1032"/>
<text text-anchor="start" x="789.47" y="-1039.4" font-family="Times,serif" font-size="14.00">show_id: </text>
<text text-anchor="start" x="844.3" y="-1039.4" font-family="Times,serif" font-style="italic" font-size="14.00">INTEGER</text>
<polygon fill="none" stroke="black" points="749.32,-1010 749.32,-1032 944.32,-1032 944.32,-1010 749.32,-1010"/>
<text text-anchor="start" x="791.81" y="-1017.4" font-family="Times,serif" font-size="14.00">followed_at: </text>
<text text-anchor="start" x="866.07" y="-1017.4" font-family="Times,serif" font-style="italic" font-size="14.00">TEXT</text>
<polygon fill="none" stroke="black" points="749.32,-988 749.32,-1010 944.32,-1010 944.32,-988 749.32,-988"/>
<text text-anchor="start" x="782.09" y="-995.4" font-family="Times,serif" font-size="14.00">pending_action: </text>
<text text-anchor="start" x="875.79" y="-995.4" font-family="Times,serif" font-style="italic" font-size="14.00">TEXT</text>
<polygon fill="none" stroke="black" points="749.32,-966 749.32,-988 944.32,-988 944.32,-966 749.32,-966"/>
<text text-anchor="start" x="791.42" y="-973.4" font-family="Times,serif" font-size="14.00">trakt_id: </text>
<text text-anchor="start" x="842.36" y="-973.4" font-family="Times,serif" font-style="italic" font-size="14.00">INTEGER</text>
<polygon fill="#c1cdcd" stroke="transparent" points="749.32,-944 749.32,-966 944.32,-966 944.32,-944 749.32,-944"/>
<polygon fill="none" stroke="black" points="749.32,-944 749.32,-966 944.32,-966 944.32,-944 749.32,-944"/>
<text text-anchor="start" x="826.61" y="-951.4" font-family="Times,serif" font-style="italic" font-size="14.00">Indices</text>
<polygon fill="none" stroke="black" points="749.32,-922 749.32,-944 944.32,-944 944.32,-922 749.32,-922"/>
<text text-anchor="start" x="751.95" y="-928.4" font-family="Times,serif" font-size="14.00">index_myshows_entries_show_id</text>
</g>
<!-- myshows_entries&#45;&gt;shows -->
<g id="edge4" class="edge">
<title>myshows_entries:show_id&#45;&gt;shows:id</title>
<path fill="none" stroke="black" stroke-dasharray="5,2" d="M945.32,-1043C1021.18,-1043 1035.36,-994.65 1105.68,-990.31"/>
<polygon fill="black" stroke="black" points="1106.09,-993.8 1115.98,-990 1105.88,-986.8 1106.09,-993.8"/>
<text text-anchor="middle" x="1034.65" y="-1022.2" font-family="Times,serif" font-size="14.00">1&#45;1</text>
</g>
<!-- seasons -->
<g id="node8" class="node">
<title>seasons</title>
<polygon fill="#caff70" stroke="transparent" points="762.32,-864 762.32,-886 930.32,-886 930.32,-864 762.32,-864"/>
<polygon fill="none" stroke="black" points="762.32,-864 762.32,-886 930.32,-886 930.32,-864 762.32,-864"/>
<text text-anchor="start" x="824.94" y="-871.4" font-family="Times,serif" font-weight="bold" font-size="14.00">seasons</text>
<polygon fill="none" stroke="black" points="762.32,-842 762.32,-864 930.32,-864 930.32,-842 762.32,-842"/>
<text text-anchor="start" x="807.25" y="-849.4" font-family="Times,serif" font-weight="bold" font-size="14.00">id: </text>
<text text-anchor="start" x="825.53" y="-849.4" font-family="Times,serif" font-weight="bold" font-style="italic" font-size="14.00">INTEGER</text>
<polygon fill="none" stroke="black" points="762.32,-820 762.32,-842 930.32,-842 930.32,-820 762.32,-820"/>
<text text-anchor="start" x="788.97" y="-827.4" font-family="Times,serif" font-size="14.00">show_id: </text>
<text text-anchor="start" x="843.8" y="-827.4" font-family="Times,serif" font-style="italic" font-size="14.00">INTEGER</text>
<polygon fill="none" stroke="black" points="762.32,-798 762.32,-820 930.32,-820 930.32,-798 762.32,-798"/>
<text text-anchor="start" x="790.92" y="-805.4" font-family="Times,serif" font-size="14.00">trakt_id: </text>
<text text-anchor="start" x="841.86" y="-805.4" font-family="Times,serif" font-style="italic" font-size="14.00">INTEGER</text>
<polygon fill="none" stroke="black" points="762.32,-776 762.32,-798 930.32,-798 930.32,-776 762.32,-776"/>
<text text-anchor="start" x="789.36" y="-783.4" font-family="Times,serif" font-size="14.00">tmdb_id: </text>
<text text-anchor="start" x="843.42" y="-783.4" font-family="Times,serif" font-style="italic" font-size="14.00">INTEGER</text>
<polygon fill="none" stroke="black" points="762.32,-754 762.32,-776 930.32,-776 930.32,-754 762.32,-754"/>
<text text-anchor="start" x="813.86" y="-761.4" font-family="Times,serif" font-size="14.00">title: </text>
<text text-anchor="start" x="843.02" y="-761.4" font-family="Times,serif" font-style="italic" font-size="14.00">TEXT</text>
<polygon fill="none" stroke="black" points="762.32,-732 762.32,-754 930.32,-754 930.32,-732 762.32,-732"/>
<text text-anchor="start" x="798.7" y="-739.4" font-family="Times,serif" font-size="14.00">overview: </text>
<text text-anchor="start" x="858.18" y="-739.4" font-family="Times,serif" font-style="italic" font-size="14.00">TEXT</text>
<polygon fill="none" stroke="black" points="762.32,-710 762.32,-732 930.32,-732 930.32,-710 762.32,-710"/>
<text text-anchor="start" x="791.31" y="-717.4" font-family="Times,serif" font-size="14.00">number: </text>
<text text-anchor="start" x="841.47" y="-717.4" font-family="Times,serif" font-style="italic" font-size="14.00">INTEGER</text>
<polygon fill="none" stroke="black" points="762.32,-688 762.32,-710 930.32,-710 930.32,-688 762.32,-688"/>
<text text-anchor="start" x="801.81" y="-695.4" font-family="Times,serif" font-size="14.00">network: </text>
<text text-anchor="start" x="855.07" y="-695.4" font-family="Times,serif" font-style="italic" font-size="14.00">TEXT</text>
<polygon fill="none" stroke="black" points="762.32,-666 762.32,-688 930.32,-688 930.32,-666 762.32,-666"/>
<text text-anchor="start" x="787.03" y="-673.4" font-family="Times,serif" font-size="14.00">ep_count: </text>
<text text-anchor="start" x="845.74" y="-673.4" font-family="Times,serif" font-style="italic" font-size="14.00">INTEGER</text>
<polygon fill="none" stroke="black" points="762.32,-644 762.32,-666 930.32,-666 930.32,-644 762.32,-644"/>
<text text-anchor="start" x="788.59" y="-651.4" font-family="Times,serif" font-size="14.00">ep_aired: </text>
<text text-anchor="start" x="844.18" y="-651.4" font-family="Times,serif" font-style="italic" font-size="14.00">INTEGER</text>
<polygon fill="none" stroke="black" points="762.32,-622 762.32,-644 930.32,-644 930.32,-622 762.32,-622"/>
<text text-anchor="start" x="791.7" y="-629.4" font-family="Times,serif" font-size="14.00">trakt_rating: </text>
<text text-anchor="start" x="864.4" y="-629.4" font-family="Times,serif" font-style="italic" font-size="14.00">REAL</text>
<polygon fill="none" stroke="black" points="762.32,-600 762.32,-622 930.32,-622 930.32,-600 762.32,-600"/>
<text text-anchor="start" x="781.59" y="-607.4" font-family="Times,serif" font-size="14.00">trakt_votes: </text>
<text text-anchor="start" x="851.19" y="-607.4" font-family="Times,serif" font-style="italic" font-size="14.00">INTEGER</text>
<polygon fill="none" stroke="black" points="762.32,-578 762.32,-600 930.32,-600 930.32,-578 762.32,-578"/>
<text text-anchor="start" x="774.2" y="-585.4" font-family="Times,serif" font-size="14.00">tmdb_poster_path: </text>
<text text-anchor="start" x="882.68" y="-585.4" font-family="Times,serif" font-style="italic" font-size="14.00">TEXT</text>
<polygon fill="none" stroke="black" points="762.32,-556 762.32,-578 930.32,-578 930.32,-556 762.32,-556"/>
<text text-anchor="start" x="765.26" y="-563.4" font-family="Times,serif" font-size="14.00">tmdb_backdrop_path: </text>
<text text-anchor="start" x="891.62" y="-563.4" font-family="Times,serif" font-style="italic" font-size="14.00">TEXT</text>
<polygon fill="none" stroke="black" points="762.32,-534 762.32,-556 930.32,-556 930.32,-534 762.32,-534"/>
<text text-anchor="start" x="791.31" y="-541.4" font-family="Times,serif" font-size="14.00">ignored: </text>
<text text-anchor="start" x="841.47" y="-541.4" font-family="Times,serif" font-style="italic" font-size="14.00">INTEGER</text>
<polygon fill="#c1cdcd" stroke="transparent" points="762.32,-512 762.32,-534 930.32,-534 930.32,-512 762.32,-512"/>
<polygon fill="none" stroke="black" points="762.32,-512 762.32,-534 930.32,-534 930.32,-512 762.32,-512"/>
<text text-anchor="start" x="826.11" y="-519.4" font-family="Times,serif" font-style="italic" font-size="14.00">Indices</text>
<polygon fill="none" stroke="black" points="762.32,-490 762.32,-512 930.32,-512 930.32,-490 762.32,-490"/>
<text text-anchor="start" x="780.61" y="-496.4" font-family="Times,serif" font-size="14.00">index_seasons_trakt_id</text>
<polygon fill="none" stroke="black" points="762.32,-468 762.32,-490 930.32,-490 930.32,-468 762.32,-468"/>
<text text-anchor="start" x="778.67" y="-474.4" font-family="Times,serif" font-size="14.00">index_seasons_show_id</text>
</g>
<!-- seasons&#45;&gt;shows -->
<g id="edge5" class="edge">
<title>seasons:show_id&#45;&gt;shows:id</title>
<path fill="none" stroke="black" stroke-dasharray="5,2" d="M931.32,-831C1036.13,-831 1009.59,-979.92 1105.94,-989.52"/>
<polygon fill="black" stroke="black" points="1105.82,-993.01 1115.98,-990 1106.16,-986.02 1105.82,-993.01"/>
<text text-anchor="middle" x="1034.65" y="-951.2" font-family="Times,serif" font-size="14.00">1&#45;1</text>
</g>
<!-- episodes -->
<g id="node9" class="node">
<title>episodes</title>
<polygon fill="#caff70" stroke="transparent" points="402.16,-886 402.16,-908 577.16,-908 577.16,-886 402.16,-886"/>
<polygon fill="none" stroke="black" points="402.16,-886 402.16,-908 577.16,-908 577.16,-886 402.16,-886"/>
<text text-anchor="start" x="465.56" y="-893.4" font-family="Times,serif" font-weight="bold" font-size="14.00">episodes</text>
<polygon fill="none" stroke="black" points="402.16,-864 402.16,-886 577.16,-886 577.16,-864 402.16,-864"/>
<text text-anchor="start" x="450.59" y="-871.4" font-family="Times,serif" font-weight="bold" font-size="14.00">id: </text>
<text text-anchor="start" x="468.87" y="-871.4" font-family="Times,serif" font-weight="bold" font-style="italic" font-size="14.00">INTEGER</text>
<polygon fill="none" stroke="black" points="402.16,-842 402.16,-864 577.16,-864 577.16,-842 402.16,-842"/>
<text text-anchor="start" x="428.43" y="-849.4" font-family="Times,serif" font-size="14.00">season_id: </text>
<text text-anchor="start" x="491.03" y="-849.4" font-family="Times,serif" font-style="italic" font-size="14.00">INTEGER</text>
<polygon fill="none" stroke="black" points="402.16,-820 402.16,-842 577.16,-842 577.16,-820 402.16,-820"/>
<text text-anchor="start" x="434.26" y="-827.4" font-family="Times,serif" font-size="14.00">trakt_id: </text>
<text text-anchor="start" x="485.2" y="-827.4" font-family="Times,serif" font-style="italic" font-size="14.00">INTEGER</text>
<polygon fill="none" stroke="black" points="402.16,-798 402.16,-820 577.16,-820 577.16,-798 402.16,-798"/>
<text text-anchor="start" x="432.7" y="-805.4" font-family="Times,serif" font-size="14.00">tmdb_id: </text>
<text text-anchor="start" x="486.76" y="-805.4" font-family="Times,serif" font-style="italic" font-size="14.00">INTEGER</text>
<polygon fill="none" stroke="black" points="402.16,-776 402.16,-798 577.16,-798 577.16,-776 402.16,-776"/>
<text text-anchor="start" x="457.19" y="-783.4" font-family="Times,serif" font-size="14.00">title: </text>
<text text-anchor="start" x="486.36" y="-783.4" font-family="Times,serif" font-style="italic" font-size="14.00">TEXT</text>
<polygon fill="none" stroke="black" points="402.16,-754 402.16,-776 577.16,-776 577.16,-754 402.16,-754"/>
<text text-anchor="start" x="442.04" y="-761.4" font-family="Times,serif" font-size="14.00">overview: </text>
<text text-anchor="start" x="501.52" y="-761.4" font-family="Times,serif" font-style="italic" font-size="14.00">TEXT</text>
<polygon fill="none" stroke="black" points="402.16,-732 402.16,-754 577.16,-754 577.16,-732 402.16,-732"/>
<text text-anchor="start" x="434.65" y="-739.4" font-family="Times,serif" font-size="14.00">number: </text>
<text text-anchor="start" x="484.8" y="-739.4" font-family="Times,serif" font-style="italic" font-size="14.00">INTEGER</text>
<polygon fill="none" stroke="black" points="402.16,-710 402.16,-732 577.16,-732 577.16,-710 402.16,-710"/>
<text text-anchor="start" x="439.32" y="-717.4" font-family="Times,serif" font-size="14.00">first_aired: </text>
<text text-anchor="start" x="504.24" y="-717.4" font-family="Times,serif" font-style="italic" font-size="14.00">TEXT</text>
<polygon fill="none" stroke="black" points="402.16,-688 402.16,-710 577.16,-710 577.16,-688 402.16,-688"/>
<text text-anchor="start" x="435.03" y="-695.4" font-family="Times,serif" font-size="14.00">trakt_rating: </text>
<text text-anchor="start" x="507.74" y="-695.4" font-family="Times,serif" font-style="italic" font-size="14.00">REAL</text>
<polygon fill="none" stroke="black" points="402.16,-666 402.16,-688 577.16,-688 577.16,-666 402.16,-666"/>
<text text-anchor="start" x="405.1" y="-673.4" font-family="Times,serif" font-size="14.00">trakt_rating_votes: </text>
<text text-anchor="start" x="514.35" y="-673.4" font-family="Times,serif" font-style="italic" font-size="14.00">INTEGER</text>
<polygon fill="none" stroke="black" points="402.16,-644 402.16,-666 577.16,-666 577.16,-644 402.16,-644"/>
<text text-anchor="start" x="408.59" y="-651.4" font-family="Times,serif" font-size="14.00">tmdb_backdrop_path: </text>
<text text-anchor="start" x="534.96" y="-651.4" font-family="Times,serif" font-style="italic" font-size="14.00">TEXT</text>
<polygon fill="#c1cdcd" stroke="transparent" points="402.16,-622 402.16,-644 577.16,-644 577.16,-622 402.16,-622"/>
<polygon fill="none" stroke="black" points="402.16,-622 402.16,-644 577.16,-644 577.16,-622 402.16,-622"/>
<text text-anchor="start" x="469.45" y="-629.4" font-family="Times,serif" font-style="italic" font-size="14.00">Indices</text>
<polygon fill="none" stroke="black" points="402.16,-600 402.16,-622 577.16,-622 577.16,-600 402.16,-600"/>
<text text-anchor="start" x="421.23" y="-606.4" font-family="Times,serif" font-size="14.00">index_episodes_trakt_id</text>
<polygon fill="none" stroke="black" points="402.16,-578 402.16,-600 577.16,-600 577.16,-578 402.16,-578"/>
<text text-anchor="start" x="415.4" y="-584.4" font-family="Times,serif" font-size="14.00">index_episodes_season_id</text>
</g>
<!-- episodes&#45;&gt;seasons -->
<g id="edge6" class="edge">
<title>episodes:season_id&#45;&gt;seasons:id</title>
<path fill="none" stroke="black" stroke-dasharray="5,2" d="M576.66,-853C655.21,-853 677.37,-853 751.07,-853"/>
<polygon fill="black" stroke="black" points="751.32,-856.5 761.32,-853 751.32,-849.5 751.32,-856.5"/>
<text text-anchor="middle" x="657.99" y="-857.2" font-family="Times,serif" font-size="14.00">1&#45;1</text>
</g>
<!-- related_shows -->
<g id="node10" class="node">
<title>related_shows</title>
<polygon fill="#caff70" stroke="transparent" points="739.32,-410 739.32,-432 953.32,-432 953.32,-410 739.32,-410"/>
<polygon fill="none" stroke="black" points="739.32,-410 739.32,-432 953.32,-432 953.32,-410 739.32,-410"/>
<text text-anchor="start" x="806.28" y="-417.4" font-family="Times,serif" font-weight="bold" font-size="14.00">related_shows</text>
<polygon fill="none" stroke="black" points="739.32,-388 739.32,-410 953.32,-410 953.32,-388 739.32,-388"/>
<text text-anchor="start" x="807.25" y="-395.4" font-family="Times,serif" font-weight="bold" font-size="14.00">id: </text>
<text text-anchor="start" x="825.53" y="-395.4" font-family="Times,serif" font-weight="bold" font-style="italic" font-size="14.00">INTEGER</text>
<polygon fill="none" stroke="black" points="739.32,-366 739.32,-388 953.32,-388 953.32,-366 739.32,-366"/>
<text text-anchor="start" x="788.97" y="-373.4" font-family="Times,serif" font-size="14.00">show_id: </text>
<text text-anchor="start" x="843.8" y="-373.4" font-family="Times,serif" font-style="italic" font-size="14.00">INTEGER</text>
<polygon fill="none" stroke="black" points="739.32,-344 739.32,-366 953.32,-366 953.32,-344 739.32,-344"/>
<text text-anchor="start" x="771.09" y="-351.4" font-family="Times,serif" font-size="14.00">other_show_id: </text>
<text text-anchor="start" x="861.69" y="-351.4" font-family="Times,serif" font-style="italic" font-size="14.00">INTEGER</text>
<polygon fill="none" stroke="black" points="739.32,-322 739.32,-344 953.32,-344 953.32,-322 739.32,-322"/>
<text text-anchor="start" x="778.87" y="-329.4" font-family="Times,serif" font-size="14.00">order_index: </text>
<text text-anchor="start" x="853.9" y="-329.4" font-family="Times,serif" font-style="italic" font-size="14.00">INTEGER</text>
<polygon fill="#c1cdcd" stroke="transparent" points="739.32,-300 739.32,-322 953.32,-322 953.32,-300 739.32,-300"/>
<polygon fill="none" stroke="black" points="739.32,-300 739.32,-322 953.32,-322 953.32,-300 739.32,-300"/>
<text text-anchor="start" x="826.11" y="-307.4" font-family="Times,serif" font-style="italic" font-size="14.00">Indices</text>
<polygon fill="none" stroke="black" points="739.32,-278 739.32,-300 953.32,-300 953.32,-278 739.32,-278"/>
<text text-anchor="start" x="760.01" y="-284.4" font-family="Times,serif" font-size="14.00">index_related_shows_show_id</text>
<polygon fill="none" stroke="black" points="739.32,-256 739.32,-278 953.32,-278 953.32,-256 739.32,-256"/>
<text text-anchor="start" x="742.12" y="-262.4" font-family="Times,serif" font-size="14.00">index_related_shows_other_show_id</text>
</g>
<!-- related_shows&#45;&gt;shows -->
<g id="edge7" class="edge">
<title>related_shows:other_show_id&#45;&gt;shows:id</title>
<path fill="none" stroke="black" stroke-dasharray="5,2" d="M953.32,-355C1100.8,-355 1007.43,-531.32 1043.98,-674.2 1060.95,-740.53 1045.66,-966.39 1106.07,-988.29"/>
<polygon fill="black" stroke="black" points="1105.53,-991.75 1115.98,-990 1106.72,-984.85 1105.53,-991.75"/>
<text text-anchor="middle" x="1034.65" y="-678.2" font-family="Times,serif" font-size="14.00">1&#45;1</text>
</g>
<!-- related_shows&#45;&gt;shows -->
<g id="edge8" class="edge">
<title>related_shows:show_id&#45;&gt;shows:id</title>
<path fill="none" stroke="black" stroke-dasharray="5,2" d="M953.32,-377C1025.99,-377 1006.6,-625.78 1025.32,-696 1042.04,-758.71 1047.1,-967.27 1106.05,-988.29"/>
<polygon fill="black" stroke="black" points="1105.53,-991.75 1115.98,-990 1106.72,-984.85 1105.53,-991.75"/>
<text text-anchor="middle" x="1034.65" y="-816.2" font-family="Times,serif" font-size="14.00">1&#45;1</text>
</g>
<!-- episode_watch_entries -->
<g id="node11" class="node">
<title>episode_watch_entries</title>
<polygon fill="#caff70" stroke="transparent" points="0.5,-908 0.5,-930 239.5,-930 239.5,-908 0.5,-908"/>
<polygon fill="none" stroke="black" points="0.5,-908 0.5,-930 239.5,-930 239.5,-908 0.5,-908"/>
<text text-anchor="start" x="56.25" y="-915.4" font-family="Times,serif" font-weight="bold" font-size="14.00">episode_watch_entries</text>
<polygon fill="none" stroke="black" points="0.5,-886 0.5,-908 239.5,-908 239.5,-886 0.5,-886"/>
<text text-anchor="start" x="80.93" y="-893.4" font-family="Times,serif" font-weight="bold" font-size="14.00">id: </text>
<text text-anchor="start" x="99.21" y="-893.4" font-family="Times,serif" font-weight="bold" font-style="italic" font-size="14.00">INTEGER</text>
<polygon fill="none" stroke="black" points="0.5,-864 0.5,-886 239.5,-886 239.5,-864 0.5,-864"/>
<text text-anchor="start" x="56.04" y="-871.4" font-family="Times,serif" font-size="14.00">episode_id: </text>
<text text-anchor="start" x="124.09" y="-871.4" font-family="Times,serif" font-style="italic" font-size="14.00">INTEGER</text>
<polygon fill="none" stroke="black" points="0.5,-842 0.5,-864 239.5,-864 239.5,-842 0.5,-842"/>
<text text-anchor="start" x="64.6" y="-849.4" font-family="Times,serif" font-size="14.00">trakt_id: </text>
<text text-anchor="start" x="115.53" y="-849.4" font-family="Times,serif" font-style="italic" font-size="14.00">INTEGER</text>
<polygon fill="none" stroke="black" points="0.5,-820 0.5,-842 239.5,-842 239.5,-820 0.5,-820"/>
<text text-anchor="start" x="66.55" y="-827.4" font-family="Times,serif" font-size="14.00">watched_at: </text>
<text text-anchor="start" x="137.69" y="-827.4" font-family="Times,serif" font-style="italic" font-size="14.00">TEXT</text>
<polygon fill="none" stroke="black" points="0.5,-798 0.5,-820 239.5,-820 239.5,-798 0.5,-798"/>
<text text-anchor="start" x="55.26" y="-805.4" font-family="Times,serif" font-size="14.00">pending_action: </text>
<text text-anchor="start" x="148.97" y="-805.4" font-family="Times,serif" font-style="italic" font-size="14.00">TEXT</text>
<polygon fill="#c1cdcd" stroke="transparent" points="0.5,-776 0.5,-798 239.5,-798 239.5,-776 0.5,-776"/>
<polygon fill="none" stroke="black" points="0.5,-776 0.5,-798 239.5,-798 239.5,-776 0.5,-776"/>
<text text-anchor="start" x="99.79" y="-783.4" font-family="Times,serif" font-style="italic" font-size="14.00">Indices</text>
<polygon fill="none" stroke="black" points="0.5,-754 0.5,-776 239.5,-776 239.5,-754 0.5,-754"/>
<text text-anchor="start" x="3.37" y="-760.4" font-family="Times,serif" font-size="14.00">index_episode_watch_entries_episode_id</text>
<polygon fill="none" stroke="black" points="0.5,-732 0.5,-754 239.5,-754 239.5,-732 0.5,-732"/>
<text text-anchor="start" x="11.92" y="-738.4" font-family="Times,serif" font-size="14.00">index_episode_watch_entries_trakt_id</text>
</g>
<!-- episode_watch_entries&#45;&gt;episodes -->
<g id="edge9" class="edge">
<title>episode_watch_entries:episode_id&#45;&gt;episodes:id</title>
<path fill="none" stroke="black" stroke-dasharray="5,2" d="M239,-875C307.76,-875 327.47,-875 391.45,-875"/>
<polygon fill="black" stroke="black" points="391.66,-878.5 401.66,-875 391.66,-871.5 391.66,-878.5"/>
<text text-anchor="middle" x="320.33" y="-879.2" font-family="Times,serif" font-size="14.00">1&#45;1</text>
</g>
<!-- last_requests -->
<g id="node12" class="node">
<title>last_requests</title>
<polygon fill="#caff70" stroke="transparent" points="9.5,-1500 9.5,-1522 229.5,-1522 229.5,-1500 9.5,-1500"/>
<polygon fill="none" stroke="black" points="9.5,-1500 9.5,-1522 229.5,-1522 229.5,-1500 9.5,-1500"/>
<text text-anchor="start" x="83.34" y="-1507.4" font-family="Times,serif" font-weight="bold" font-size="14.00">last_requests</text>
<polygon fill="none" stroke="black" points="9.5,-1478 9.5,-1500 229.5,-1500 229.5,-1478 9.5,-1478"/>
<text text-anchor="start" x="80.43" y="-1485.4" font-family="Times,serif" font-weight="bold" font-size="14.00">id: </text>
<text text-anchor="start" x="98.71" y="-1485.4" font-family="Times,serif" font-weight="bold" font-style="italic" font-size="14.00">INTEGER</text>
<polygon fill="none" stroke="black" points="9.5,-1456 9.5,-1478 229.5,-1478 229.5,-1456 9.5,-1456"/>
<text text-anchor="start" x="77.71" y="-1463.4" font-family="Times,serif" font-size="14.00">request: </text>
<text text-anchor="start" x="125.53" y="-1463.4" font-family="Times,serif" font-style="italic" font-size="14.00">TEXT</text>
<polygon fill="none" stroke="black" points="9.5,-1434 9.5,-1456 229.5,-1456 229.5,-1434 9.5,-1434"/>
<text text-anchor="start" x="60.98" y="-1441.4" font-family="Times,serif" font-size="14.00">entity_id: </text>
<text text-anchor="start" x="118.15" y="-1441.4" font-family="Times,serif" font-style="italic" font-size="14.00">INTEGER</text>
<polygon fill="none" stroke="black" points="9.5,-1412 9.5,-1434 229.5,-1434 229.5,-1412 9.5,-1412"/>
<text text-anchor="start" x="56.71" y="-1419.4" font-family="Times,serif" font-size="14.00">timestamp: </text>
<text text-anchor="start" x="122.42" y="-1419.4" font-family="Times,serif" font-style="italic" font-size="14.00">INTEGER</text>
<polygon fill="#c1cdcd" stroke="transparent" points="9.5,-1390 9.5,-1412 229.5,-1412 229.5,-1390 9.5,-1390"/>
<polygon fill="none" stroke="black" points="9.5,-1390 9.5,-1412 229.5,-1412 229.5,-1390 9.5,-1390"/>
<text text-anchor="start" x="99.29" y="-1397.4" font-family="Times,serif" font-style="italic" font-size="14.00">Indices</text>
<polygon fill="none" stroke="black" points="9.5,-1368 9.5,-1390 229.5,-1390 229.5,-1368 9.5,-1368"/>
<text text-anchor="start" x="12.19" y="-1374.4" font-family="Times,serif" font-size="14.00">index_last_requests_request_entity_id</text>
</g>
<!-- show_images -->
<g id="node13" class="node">
<title>show_images</title>
<polygon fill="#caff70" stroke="transparent" points="759.32,-198 759.32,-220 933.32,-220 933.32,-198 759.32,-198"/>
<polygon fill="none" stroke="black" points="759.32,-198 759.32,-220 933.32,-220 933.32,-198 759.32,-198"/>
<text text-anchor="start" x="808.22" y="-205.4" font-family="Times,serif" font-weight="bold" font-size="14.00">show_images</text>
<polygon fill="none" stroke="black" points="759.32,-176 759.32,-198 933.32,-198 933.32,-176 759.32,-176"/>
<text text-anchor="start" x="807.25" y="-183.4" font-family="Times,serif" font-weight="bold" font-size="14.00">id: </text>
<text text-anchor="start" x="825.53" y="-183.4" font-family="Times,serif" font-weight="bold" font-style="italic" font-size="14.00">INTEGER</text>
<polygon fill="none" stroke="black" points="759.32,-154 759.32,-176 933.32,-176 933.32,-154 759.32,-154"/>
<text text-anchor="start" x="788.97" y="-161.4" font-family="Times,serif" font-size="14.00">show_id: </text>
<text text-anchor="start" x="843.8" y="-161.4" font-family="Times,serif" font-style="italic" font-size="14.00">INTEGER</text>
<polygon fill="none" stroke="black" points="759.32,-132 759.32,-154 933.32,-154 933.32,-132 759.32,-132"/>
<text text-anchor="start" x="812.69" y="-139.4" font-family="Times,serif" font-size="14.00">path: </text>
<text text-anchor="start" x="844.19" y="-139.4" font-family="Times,serif" font-style="italic" font-size="14.00">TEXT</text>
<polygon fill="none" stroke="black" points="759.32,-110 759.32,-132 933.32,-132 933.32,-110 759.32,-110"/>
<text text-anchor="start" x="812.69" y="-117.4" font-family="Times,serif" font-size="14.00">type: </text>
<text text-anchor="start" x="844.19" y="-117.4" font-family="Times,serif" font-style="italic" font-size="14.00">TEXT</text>
<polygon fill="none" stroke="black" points="759.32,-88 759.32,-110 933.32,-110 933.32,-88 759.32,-88"/>
<text text-anchor="start" x="812.69" y="-95.4" font-family="Times,serif" font-size="14.00">lang: </text>
<text text-anchor="start" x="844.19" y="-95.4" font-family="Times,serif" font-style="italic" font-size="14.00">TEXT</text>
<polygon fill="none" stroke="black" points="759.32,-66 759.32,-88 933.32,-88 933.32,-66 759.32,-66"/>
<text text-anchor="start" x="808.02" y="-73.4" font-family="Times,serif" font-size="14.00">rating: </text>
<text text-anchor="start" x="848.07" y="-73.4" font-family="Times,serif" font-style="italic" font-size="14.00">REAL</text>
<polygon fill="none" stroke="black" points="759.32,-44 759.32,-66 933.32,-66 933.32,-44 759.32,-44"/>
<text text-anchor="start" x="782.37" y="-51.4" font-family="Times,serif" font-size="14.00">is_primary: </text>
<text text-anchor="start" x="850.41" y="-51.4" font-family="Times,serif" font-style="italic" font-size="14.00">INTEGER</text>
<polygon fill="#c1cdcd" stroke="transparent" points="759.32,-22 759.32,-44 933.32,-44 933.32,-22 759.32,-22"/>
<polygon fill="none" stroke="black" points="759.32,-22 759.32,-44 933.32,-44 933.32,-22 759.32,-22"/>
<text text-anchor="start" x="826.11" y="-29.4" font-family="Times,serif" font-style="italic" font-size="14.00">Indices</text>
<polygon fill="none" stroke="black" points="759.32,0 759.32,-22 933.32,-22 933.32,0 759.32,0"/>
<text text-anchor="start" x="761.94" y="-6.4" font-family="Times,serif" font-size="14.00">index_show_images_show_id</text>
</g>
<!-- show_images&#45;&gt;shows -->
<g id="edge10" class="edge">
<title>show_images:show_id&#45;&gt;shows:id</title>
<path fill="none" stroke="black" stroke-dasharray="5,2" d="M934.32,-165C1034.22,-165 1013.33,-266.12 1043.98,-361.2 1064.5,-424.86 1047.5,-936.31 1106.31,-986.1"/>
<polygon fill="black" stroke="black" points="1105.4,-989.51 1115.98,-990 1108.01,-983.02 1105.4,-989.51"/>
<text text-anchor="middle" x="1034.65" y="-365.2" font-family="Times,serif" font-size="14.00">1&#45;1</text>
</g>
</g>
</svg>
